<svg xmlns="http://www.w3.org/2000/svg" viewBox="0 0 90 90" width="100%" height="100%">
  <!-- Design styles -->
  <style>
    .lens-border { fill: rgba(30, 41, 59, 0.1); stroke: #3b82f6; stroke-width: 0.8; stroke-dasharray: none; }
    .safety-margin { fill: none; stroke: #ef4444; stroke-width: 0.5; stroke-dasharray: 4, 4; }
    .alignment-axis { stroke: rgba(148, 163, 184, 0.3); stroke-width: 0.3; stroke-dasharray: 2, 2; }
    .laser-marking { fill: none; stroke: #06b6d4; stroke-width: 0.8; stroke-linecap: round; }
    .laser-text { fill: #06b6d4; font-family: "Courier New", monospace; font-weight: bold; font-size: 3px; text-anchor: middle; }
    .center-cross { stroke: #e2e8f0; stroke-width: 0.5; }
  </style>
  <rect width="90" height="90" fill="#0f172a" rx="8" />
  <line x1="0" y1="45.0" x2="90" y2="45.0" class="alignment-axis" />
  <line x1="45.0" y1="0" x2="45.0" y2="90" class="alignment-axis" />
  <polygon points="80.0,45.0 79.9946693304737,44.38916577469508 79.97867894566835,43.77851761541247 79.95203371641009,43.16824153149697 79.91474175909386,42.558523418955616 79.86681443321109,41.94954900383196 79.80826633788956,41.34150378563213 79.73911530744627,40.73457298081984 79.65938240595497,40.12894146639771 79.56909192082982,39.52479372359192 79.46827135542728,38.92231378165744 79.35695142066824,38.32168516182093 79.2351660256832,37.72309082137842 79.10295226748323,37.126713097964725 78.96035041965987,36.53273365401163 78.8074039201174,35.94133342141177 78.64415935784116,35.35269254640503 78.47066645870623,34.76699033470421 78.28697807033038,34.18440519687684 78.0931501459761,33.60511459399952 77.8892417275068,33.029294983601595 77.67531492740207,32.45712176591449 77.45143490983756,31.88876923044308 77.21766987083541,31.324410502875416 76.97409101749103,30.764217492346994 76.72077254628275,30.208360839075517 76.45779162047084,29.65700986238229 76.18522834659288,29.110332509115864 75.90316575006244,28.568495302493822 75.61168974987885,28.0316632913782 75.31088913245536,27.500000000000004 75.00085552457394,26.973667378148104 74.68168336547491,26.45282575183783 74.35346987808984,25.93763377447405 74.01631503942646,25.428248378523858 73.67032155011472,24.92482472771339 73.31559480312316,24.42751616976344 72.95224285165526,23.93647418967831 72.58037637623526,23.45184836360196 72.20010865099398,22.97378631325569 71.81155550916424,22.502433660971125 71.41483530779702,22.037933985332245 71.0100688917088,21.580428777439963 70.59737955667097,21.130057397812553 70.1768930118528,20.686957033935094 69.74873734152916,20.251262658470836 69.3130429660649,19.82310698814721 68.86994260218745,19.402620443329035 68.41957122256004,18.989931108291202 67.96206601466776,18.58516469220298 67.49756633902888,18.18844449083577 67.02621368674431,17.799891349006018 66.54815163639805,17.41962362376473 66.06352581032169,17.04775714834475 65.57248383023656,16.68440519687684 65.07517527228661,16.329678449885286 64.57175162147614,15.983684960573541 64.06236622552595,15.646530121910157 63.54717424816217,15.318316634525086 63.02633262185189,14.999144475426068 62.5,14.689110867544649 61.9683367086218,14.388310250121148 61.431504697506185,14.096834249937558 60.889667490884136,13.814771653407128 60.34299013761771,13.542208379529153 59.79163916092448,13.279227453717251 59.235782507653006,13.02590898250897 58.67558949712458,12.782330129164585 58.11123076955692,12.548565090162441 57.542878234085514,12.324685072597937 56.97070501639841,12.110758272493207 56.39488540600048,11.906849854023918 55.81559480312316,11.71302192966963 55.23300966529579,11.52933354129376 54.64730745359497,11.355840642158839 54.05866657858823,11.192596079882613 53.46726634598837,11.039649580340125 52.873286902035275,10.897047732516768 52.27690917862158,10.764833974316808 51.67831483817907,10.643048579331762 51.07768621834256,10.531728644572716 50.47520627640808,10.43090807917018 49.871058533602294,10.340617594045035 49.265427019180166,10.26088469255373 48.65849621436787,10.191733662110437 48.05045099616804,10.133185566788903 47.441476581044384,10.08525824090615 46.83175846850304,10.047966283589915 46.22148238458754,10.02132105433165 45.61083422530493,10.005330669526309 45.0,10.0 44.38916577469508,10.005330669526309 43.77851761541247,10.02132105433165 43.16824153149697,10.047966283589915 42.558523418955616,10.08525824090615 41.94954900383196,10.133185566788903 41.34150378563213,10.191733662110437 40.73457298081984,10.260884692553724 40.12894146639771,10.340617594045035 39.52479372359192,10.43090807917018 38.92231378165744,10.531728644572716 38.32168516182093,10.643048579331762 37.72309082137842,10.764833974316801 37.126713097964725,10.897047732516768 36.53273365401163,11.039649580340125 35.94133342141177,11.192596079882613 35.35269254640503,11.355840642158839 34.76699033470422,11.529333541293752 34.184405196876845,11.713021929669623 33.60511459399952,11.90684985402391 33.029294983601595,12.110758272493207 32.45712176591449,12.324685072597937 31.888769230443078,12.548565090162441 31.324410502875416,12.782330129164592 30.76421749234699,13.02590898250897 30.208360839075524,13.279227453717247 29.65700986238229,13.542208379529157 29.110332509115864,13.814771653407124 28.56849530249382,14.096834249937558 28.031663291378205,14.388310250121144 27.500000000000007,14.689110867544645 26.9736673781481,14.999144475426068 26.452825751837832,15.318316634525086 25.93763377447405,15.646530121910157 25.428248378523865,15.983684960573541 24.924824727713386,16.32967844988529 24.427516169763443,16.68440519687684 23.936474189678307,17.047757148344754 23.45184836360196,17.41962362376473 22.973786313255694,17.799891349006014 22.50243366097112,18.18844449083577 22.03793398533225,18.585164692202977 21.580428777439963,18.989931108291202 21.130057397812557,19.40262044332903 20.68695703393509,19.823106988147213 20.25126265847084,20.251262658470836 19.823106988147206,20.6869570339351 19.402620443329035,21.130057397812553 18.989931108291206,21.58042877743996 18.58516469220298,22.037933985332245 18.188444490835774,22.502433660971118 17.799891349006018,22.97378631325569 17.419623623764732,23.451848363601957 17.047757148344747,23.936474189678314 16.684405196876842,24.427516169763436 16.329678449885282,24.924824727713393 15.983684960573544,25.428248378523858 15.64653012191016,25.937633774474044 15.318316634525093,26.45282575183783 14.999144475426071,26.973667378148097 14.689110867544645,27.500000000000004 14.388310250121148,28.031663291378198 14.096834249937555,28.568495302493826 13.814771653407128,29.11033250911586 13.542208379529153,29.657009862382296 13.279227453717251,30.208360839075517 13.025908982508973,30.764217492346987 12.782330129164585,31.324410502875416 12.548565090162441,31.888769230443074 12.324685072597937,32.45712176591449 12.110758272493207,33.02929498360159 11.90684985402391,33.60511459399952 11.71302192966963,34.18440519687684 11.529333541293752,34.76699033470422 11.355840642158839,35.352692546405024 11.192596079882613,35.94133342141176 11.039649580340125,36.53273365401163 10.897047732516768,37.12671309796472 10.764833974316801,37.72309082137842 10.643048579331762,38.32168516182092 10.531728644572716,38.92231378165744 10.43090807917018,39.52479372359191 10.340617594045035,40.12894146639771 10.26088469255373,40.734572980819834 10.191733662110437,41.34150378563212 10.133185566788903,41.94954900383196 10.08525824090615,42.55852341895561 10.047966283589915,43.16824153149697 10.02132105433165,43.77851761541246 10.005330669526309,44.38916577469508 10.0,44.99999999999999 10.005330669526309,45.61083422530493 10.02132105433165,46.22148238458753 10.047966283589915,46.831758468503025 10.08525824090615,47.441476581044384 10.133185566788903,48.05045099616803 10.191733662110437,48.65849621436787 10.260884692553724,49.26542701918016 10.340617594045042,49.871058533602294 10.43090807917018,50.47520627640807 10.531728644572716,51.07768621834256 10.643048579331762,51.67831483817906 10.764833974316808,52.27690917862158 10.897047732516768,52.873286902035275 11.039649580340125,53.467266345988364 11.192596079882613,54.05866657858823 11.355840642158839,54.64730745359496 11.52933354129376,55.23300966529579 11.713021929669623,55.815594803123155 11.906849854023918,56.39488540600048 12.110758272493207,56.970705016398405 12.324685072597937,57.542878234085514 12.548565090162441,58.11123076955692 12.782330129164585,58.67558949712458 13.02590898250897,59.235782507653006 13.279227453717247,59.791639160924476 13.542208379529157,60.34299013761771 13.814771653407124,60.889667490884136 14.096834249937558,61.431504697506185 14.388310250121144,61.96833670862179 14.689110867544649,62.5 14.999144475426068,63.02633262185189 15.318316634525086,63.547174248162165 15.646530121910157,64.06236622552595 15.983684960573541,64.57175162147614 16.329678449885286,65.07517527228661 16.68440519687684,65.57248383023656 17.04775714834475,66.06352581032169 17.41962362376473,66.54815163639803 17.79989134900602,67.02621368674431 18.18844449083577,67.49756633902888 18.585164692202977,67.96206601466776 18.989931108291202,68.41957122256004 19.40262044332903,68.86994260218745 19.823106988147213,69.3130429660649 20.251262658470832,69.74873734152916 20.686957033935094,70.1768930118528 21.13005739781255,70.59737955667097 21.580428777439966,71.0100688917088 22.037933985332245,71.41483530779702 22.502433660971118,71.81155550916422 22.973786313255676,72.20010865099397 23.451848363601968,72.58037637623528 23.93647418967831,72.95224285165526 24.427516169763436,73.31559480312316 24.924824727713375,73.6703215501147 25.428248378523868,74.01631503942647 25.937633774474055,74.35346987808984 26.452825751837825,74.68168336547491 26.973667378148097,75.00085552457392 27.499999999999986,75.31088913245534 28.031663291378212,75.61168974987885 28.568495302493822,75.90316575006244 29.110332509115857,76.18522834659288 29.65700986238228,76.45779162047084 30.20836083907553,76.72077254628276 30.764217492346997,76.97409101749103 31.324410502875416,77.21766987083541 31.888769230443067,77.45143490983756 32.45712176591448,77.67531492740206 33.0292949836016,77.8892417275068 33.60511459399952,78.0931501459761 34.18440519687684,78.28697807033038 34.766990334704204,78.47066645870623 35.35269254640504,78.64415935784118 35.94133342141178,78.8074039201174 36.53273365401163,78.96035041965987 37.12671309796472,79.10295226748323 37.723090821378406,79.23516602568318 38.32168516182094,79.35695142066824 38.92231378165744,79.46827135542728 39.52479372359191,79.56909192082982 40.1289414663977,79.65938240595496 40.73457298081985,79.73911530744627 41.341503785632135,79.80826633788956 41.94954900383196,79.86681443321109 42.5585234189556,79.91474175909386 43.168241531496946,79.95203371641009 43.778517615412476,79.97867894566835 44.38916577469508,79.9946693304737 44.99999999999999,80.0 45.61083422530491,79.9946693304737 46.221482384587546,79.97867894566835 46.83175846850304,79.95203371641009 47.441476581044384,79.91474175909386 48.050450996168024,79.86681443321109 48.65849621436786,79.80826633788956 49.265427019180166,79.73911530744627 49.871058533602294,79.65938240595497 50.47520627640807,79.56909192082982 51.07768621834255,79.46827135542728 51.67831483817908,79.35695142066824 52.27690917862158,79.23516602568318 52.873286902035275,79.10295226748323 53.467266345988364,78.96035041965987 54.05866657858821,78.8074039201174 54.647307453594976,78.64415935784115 55.23300966529578,78.47066645870623 55.815594803123155,78.28697807033038 56.39488540600047,78.0931501459761 56.97070501639841,77.8892417275068 57.542878234085514,77.67531492740207 58.11123076955692,77.45143490983756 58.67558949712458,77.21766987083541 59.23578250765299,76.97409101749103 59.79163916092449,76.72077254628275 60.34299013761771,76.45779162047084 60.889667490884136,76.18522834659288 61.43150469750616,75.90316575006244 61.968336708621806,75.61168974987885 62.5,75.31088913245534 63.02633262185189,75.00085552457394 63.547174248162165,74.68168336547491 64.06236622552593,74.35346987808985 64.57175162147615,74.01631503942646 65.07517527228661,73.67032155011472 65.57248383023655,73.31559480312316 66.06352581032168,72.95224285165526 66.54815163639805,72.58037637623526 67.02621368674431,72.20010865099398 67.49756633902888,71.81155550916424 67.96206601466776,71.41483530779703 68.41957122256002,71.01006889170881 68.86994260218745,70.59737955667096 69.3130429660649,70.17689301185278 69.74873734152916,69.74873734152916 70.17689301185278,69.31304296606491 70.59737955667097,68.86994260218744 71.0100688917088,68.41957122256004 71.41483530779702,67.96206601466776 71.81155550916422,67.49756633902888 72.20010865099397,67.02621368674433 72.58037637623528,66.54815163639803 72.95224285165526,66.06352581032169 73.31559480312316,65.57248383023656 73.6703215501147,65.07517527228663 74.01631503942647,64.57175162147612 74.35346987808984,64.06236622552595 74.6816833654749,63.54717424816218 75.00085552457392,63.02633262185191 75.31088913245534,62.500000000000014 75.61168974987885,61.96833670862179 75.90316575006244,61.43150469750618 76.18522834659288,60.88966749088414 76.45779162047084,60.34299013761772 76.72077254628275,59.791639160924476 76.97409101749103,59.235782507653006 77.21766987083541,58.675589497124584 77.45143490983756,58.11123076955693 77.67531492740206,57.54287823408553 77.8892417275068,56.9707050163984 78.0931501459761,56.39488540600048 78.28697807033038,55.81559480312317 78.47066645870623,55.233009665295796 78.64415935784116,54.64730745359496 78.8074039201174,54.05866657858822 78.96035041965987,53.46726634598838 79.10295226748323,52.87328690203529 79.23516602568318,52.276909178621594 79.35695142066824,51.67831483817906 79.46827135542728,51.07768621834256 79.56909192082982,50.47520627640809 79.65938240595496,49.87105853360231 79.73911530744627,49.26542701918015 79.80826633788956,48.65849621436787 79.86681443321109,48.05045099616804 79.91474175909386,47.4414765810444 79.95203371641009,46.831758468503054 79.97867894566835,46.22148238458753 79.9946693304737,45.61083422530493 80.0,45.0" class="lens-border" />
  <polygon points="76.99988576484279,45.0 76.99501202724588,45.55847501231465 76.98039229904282,46.11677990773058 76.95603103354446,46.67474462116802 76.92193565142827,47.23219919117017 76.8781165384779,47.78897381167527 76.8245870424197,48.34489888373926 76.76136346885663,48.89980506720114 76.68846507630172,49.453523332261106 76.60591407031154,50.00588501097169 76.51373559672216,50.55672184861497 76.41195773398962,51.10586605495383 76.30061148463685,51.65315035534357 76.17973076581,52.19840804168458 76.04935239894702,52.7414730232037 75.90951609856158,53.28217987704629 75.76026446014524,53.82036389866732 75.601642947193,54.3558611519999 75.43369987735426,54.88850851939338 75.25648640771499,55.41814375129979 75.0700565192148,55.94460551569654 74.87446700020364,56.46773344723063 74.66977742914386,56.98736819606596 74.45605015646143,57.50335147642488 74.23335028555425,58.01552611480125 74.00174565296027,58.52373609783882 73.76130680769415,59.02782661985361 73.51210698975737,59.52764412998947 73.25422210782864,60.02303637899061 72.9877307161409,60.51385246557962 72.71271399055382,60.99994288242149 72.42925570382629,61.48115956166621 72.13744220009808,61.95735592005204 71.83736236858928,62.428386903555236 71.52910761652396,62.89410903157459 71.21277184128516,63.35438044063912 70.88845140181485,63.80906092761834 70.55624508926036,64.25801199243173 70.21625409688279,64.70109688023562 69.86858198923196,65.13818062308101 69.51333467059986,65.56913008102568 69.15062035276121,65.99381398268986 68.7805495220106,66.41210296524349 68.40323490550838,66.82386961381006 68.0187914369417,67.22898850027971 67.62733622151511,67.6273362215153 67.22898850027968,68.01879143694171 66.82386961381027,68.40323490550819 66.41210296524338,68.7805495220107 65.99381398268984,69.15062035276122 65.56913008102566,69.51333467059987 65.13818062308096,69.86858198923201 64.70109688023558,70.21625409688282 64.25801199243178,70.55624508926032 63.809060927618575,70.88845140181468 63.354380440639005,71.21277184128525 62.894109031574644,71.5291076165239 62.42838690355505,71.83736236858941 61.957355920052166,72.13744220009801 61.48115956166618,72.4292557038263 60.99994288242145,72.71271399055385 60.51385246557952,72.98773071614096 60.02303637899074,73.25422210782858 59.527644129989355,73.51210698975743 59.0278266198537,73.76130680769413 58.52373609783878,74.00174565296028 58.01552611480115,74.2333502855543 57.503351476424896,74.45605015646143 56.9873681960662,74.66977742914376 56.467733447230486,74.8744670002037 55.944605515696516,75.07005651921482 55.41814375129973,75.256486407715 54.88850851939346,75.43369987735423 54.35586115199986,75.60164294719301 53.82036389866738,75.76026446014522 53.28217987704615,75.90951609856162 52.74147302320373,76.04935239894702 52.19840804168458,76.17973076581 51.653150355343705,76.30061148463682 51.10586605495382,76.41195773398962 50.556721848614835,76.51373559672217 50.005885010971745,76.60591407031153 49.45352333226086,76.68846507630177 48.89980506720125,76.76136346885662 48.34489888373952,76.82458704241968 47.78897381167486,76.87811653847793 47.23219919117035,76.92193565142827 46.67474462116802,76.95603103354446 46.116779907730574,76.98039229904282 45.558475012314645,76.99501202724588 44.99999999999999,76.99988576484279 44.44152498768535,76.99501202724588 43.88322009226942,76.98039229904282 43.32525537883198,76.95603103354446 42.767800808829634,76.92193565142827 42.21102618832513,76.87811653847793 41.65510111626035,76.82458704241967 41.100194932799056,76.76136346885666 40.546476667738894,76.68846507630172 39.99411498902832,76.60591407031154 39.44327815138503,76.51373559672216 38.894133945046185,76.41195773398962 38.34684964465642,76.30061148463685 37.801591958315434,76.17973076581 37.25852697679626,76.04935239894702 36.717820122953626,75.90951609856155 36.17963610133272,75.76026446014527 35.6441388480002,75.60164294719303 35.11149148060653,75.43369987735423 34.58185624870028,75.256486407715 34.05539448430347,75.0700565192148 33.53226655276937,74.87446700020364 33.01263180393404,74.66977742914386 32.49664852357502,74.4560501564614 31.984473885198803,74.23335028555428 31.476263902161165,74.00174565296025 30.972173380146447,73.76130680769418 30.472355870010606,73.5121069897574 29.97696362100933,73.25422210782861 29.486147534420347,72.98773071614089 29.00005711757865,72.71271399055391 28.518840438333612,72.42925570382617 28.04264407994805,72.13744220009814 27.571613096444775,71.8373623685893 27.10589096842539,71.52910761652393 26.645619559360746,71.21277184128506 26.19093907238151,70.88845140181475 25.74198800756823,70.55624508926033 25.298903119764322,70.21625409688275 24.861819376919104,69.86858198923206 24.43086991897433,69.51333467059986 24.006186017310164,69.15062035276122 23.587897034756566,68.78054952201066 23.176130386189833,68.40323490550828 22.77101149972031,68.01879143694173 22.372663778484796,67.62733622151521 21.98120856305838,67.2289885002798 21.596765094491595,66.82386961381003 21.219450477989366,66.41210296524346 20.849379647238845,65.99381398268991 20.48666532940004,65.56913008102555 20.131418010768094,65.1381806230811 19.783745903117183,64.7010968802356 19.443754910739656,64.25801199243175 19.111548598185237,63.80906092761846 18.78722815871483,63.354380440639105 18.470892383476126,62.89410903157469 18.162637631410536,62.42838690355497 17.86255779990195,61.957355920052095 17.570744296173775,61.48115956166632 17.28728600944612,60.99994288242141 17.012269283859116,60.51385246557967 16.745777892171354,60.02303637899061 16.487893010242654,59.527644129989504 16.238693192305806,59.02782661985354 15.998254347039747,58.523736097838835 15.766649714445737,58.015526114801226 15.543949843538535,57.503351476424825 15.330222570856236,56.9873681960662 15.125532999796292,56.46773344723046 14.929943480785205,55.94460551569658 14.743513592285005,55.41814375129973 14.566300122645757,54.88850851939344 14.398357052806993,54.35586115199989 14.239735539854763,53.82036389866733 14.090483901438432,53.28217987704634 13.950647601052918,52.74147302320347 13.820269234190032,52.198408041684736 13.699388515363147,51.653150355343506 13.58804226601038,51.105866054953864 13.486264403277858,50.556721848615055 13.394085929688448,50.0058850109716 13.311534923698257,49.45352333226096 13.238636531143381,48.89980506720127 13.17541295758032,48.34489888373943 13.121883461522074,47.7889738116749 13.078064348571736,47.232199191170345 13.043968966455534,46.67474462116802 13.019607700957177,46.11677990773057 13.004987972754126,45.55847501231466 13.000114235157213,44.99999999999999 13.004987972754126,44.44152498768535 13.019607700957177,43.883220092269426 13.043968966455534,43.32525537883197 13.078064348571736,42.76780080882965 13.121883461522074,42.21102618832509 13.175412957580335,41.655101116260404 13.23863653114337,41.10019493279886 13.31153492369825,40.54647666773906 13.394085929688455,39.994114989028326 13.48626440327783,39.4432781513851 13.588042266010362,38.894133945046235 13.699388515363175,38.34684964465633 13.820269234189993,37.80159195831543 13.950647601052957,37.25852697679638 14.09048390143844,36.717820122953626 14.239735539854774,36.17963610133262 14.398357052806993,35.6441388480001 14.566300122645725,35.11149148060668 14.74351359228503,34.581856248700184 14.929943480785163,34.055394484303534 15.12553299979636,33.53226655276938 15.3302225708562,33.01263180393388 15.543949843538552,32.49664852357513 15.766649714445716,31.98447388519882 15.99825434703973,31.4762639021612 16.238693192305867,30.97217338014633 16.487893010242594,30.472355870010617 16.745777892171397,29.976963621009315 17.012269283859048,29.486147534420454 17.28728600944616,29.000057117578528 17.570744296173753,28.51884043833373 17.862557799901946,28.042644079947923 18.162637631410625,27.571613096444892 18.47089238347612,27.105890968425314 18.787228158714846,26.64561955936087 19.111548598185205,26.19093907238158 19.443754910739607,25.741988007568324 19.783745903117314,25.298903119764233 20.131418010767977,24.861819376919055 20.4866653294001,24.430869918974377 20.84937964723887,24.00618601731005 21.21945047798934,23.587897034756562 21.596765094491598,23.17613038618996 21.981208563058278,22.77101149972031 22.372663778484704,22.372663778484885 22.771011499720395,21.981208563058196 23.176130386189868,21.596765094491683 23.587897034756566,21.219450477989337 24.006186017310053,20.849379647238866 24.43086991897438,20.486665329400097 24.86181937691906,20.131418010767973 25.298903119764397,19.783745903117183 25.741988007568146,19.44375491073974 26.19093907238155,19.11154859818523 26.645619559360938,18.787228158714797 27.105890968425413,18.470892383476055 27.571613096445027,18.162637631410536 28.042644079947788,17.862557799902024 28.518840438333797,17.57074429617371 29.000057117578496,17.287286009446177 29.486147534420446,17.012269283859055 29.97696362100939,16.745777892171354 30.47235587001058,16.48789301024261 30.972173380146373,16.238693192305846 31.476263902161158,15.998254347039747 31.98447388519876,15.766649714445744 32.49664852357516,15.543949843538545 33.01263180393388,15.330222570856204 33.53226655276943,15.125532999796338 34.05539448430347,14.929943480785187 34.58185624870036,14.743513592284966 35.11149148060646,14.566300122645789 35.64413884800017,14.398357052806972 36.17963610133264,14.23973553985477 36.71782012295371,14.090483901438418 37.25852697679641,13.950647601052946 37.80159195831542,13.820269234189993 38.3468496446563,13.699388515363182 38.89413394504609,13.58804226601039 39.44327815138521,13.486264403277811 39.994114989028255,13.394085929688469 40.546476667739086,13.311534923698243 41.1001949327989,13.23863653114336 41.65510111626035,13.175412957580342 42.21102618832492,13.121883461522089 42.76780080882983,13.078064348571726 43.32525537883198,13.043968966455534 43.883220092269426,13.019607700957177 44.44152498768535,13.004987972754126 45.0,13.000114235157213 45.55847501231466,13.004987972754126 46.116779907730574,13.019607700957177 46.67474462116801,13.043968966455534 47.23219919117017,13.078064348571726 47.78897381167507,13.121883461522089 48.34489888373964,13.175412957580342 48.89980506720095,13.23863653114335 49.45352333226108,13.311534923698268 50.00588501097175,13.394085929688469 50.556721848614806,13.486264403277811 51.105866054953886,13.588042266010383 51.65315035534362,13.699388515363172 52.198408041684665,13.820269234190015 52.74147302320358,13.950647601052946 53.282179877046424,14.090483901438454 53.82036389866728,14.239735539854745 54.35586115199982,14.398357052806972 54.888508519393426,14.56630012264576 55.41814375129972,14.743513592285002 55.944605515696544,14.929943480785191 56.4677334472305,15.125532999796313 56.98736819606611,15.3302225708562 57.50335147642491,15.54394984353857 58.015526114801155,15.766649714445705 58.52373609783883,15.998254347039744 59.02782661985369,16.238693192305874 59.5276441299893,16.487893010242555 60.02303637899075,16.745777892171432 60.51385246557962,17.01226928385909 60.99994288242148,17.287286009446163 61.481159561666345,17.5707442961738 61.95735592005193,17.862557799901847 62.42838690355515,18.162637631410654 62.89410903157459,18.470892383476052 63.354380440639105,18.787228158714832 63.809060927618596,19.111548598185333 64.25801199243162,19.44375491073956 64.70109688023568,19.78374590311725 65.13818062308101,20.131418010768034 65.56913008102559,20.486665329400076 65.99381398268994,20.84937964723887 66.41210296524343,21.219450477989337 66.82386961381003,21.596765094491584 67.22898850027981,21.981208563058395 67.62733622151521,22.372663778484792 68.0187914369416,22.77101149972019 68.40323490550841,23.17613038618997 68.78054952201066,23.587897034756566 69.1506203527611,24.006186017310014 69.51333467059986,24.43086991897434 69.86858198923204,24.861819376919083 70.21625409688285,25.298903119764443 70.55624508926023,25.741988007568104 70.88845140181479,26.19093907238157 71.21277184128523,26.645619559360984 71.52910761652389,27.10589096842532 71.83736236858938,27.571613096444903 72.13744220009808,28.04264407994796 72.4292557038262,28.51884043833364 72.71271399055391,29.000057117578635 72.98773071614093,29.486147534420414 73.25422210782862,29.976963621009347 73.51210698975741,30.472355870010617 73.76130680769417,30.972173380146394 74.0017456529602,31.47626390216105 74.23335028555434,31.984473885198945 74.45605015646139,32.49664852357499 74.66977742914379,33.012631803933886 74.87446700020368,33.5322665527695 75.07005651921479,34.055394484303406 75.25648640771504,34.581856248700376 75.43369987735426,35.11149148060663 75.601642947193,35.64413884800009 75.76026446014525,36.17963610133272 75.90951609856154,36.717820122953555 76.04935239894706,37.25852697679644 76.17973076581,37.80159195831543 76.30061148463682,38.34684964465632 76.41195773398961,38.894133945046086 76.5137355967222,39.443278151385215 76.60591407031153,39.99411498902825 76.68846507630172,40.54647666773893 76.76136346885664,41.10019493279905 76.82458704241967,41.65510111626037 76.87811653847791,42.21102618832492 76.92193565142827,42.76780080882984 76.95603103354446,43.32525537883198 76.98039229904282,43.883220092269426 76.99501202724588,44.44152498768535 76.99988576484279,45.0" class="safety-margin" />
  <circle cx="45.0" cy="45.0" r="1.5" fill="#f8fafc" />
  <line x1="41.0" y1="45.0" x2="49.0" y2="45.0" class="center-cross" />
  <line x1="45.0" y1="41.0" x2="45.0" y2="49.0" class="center-cross" />
  <circle cx="28.0" cy="45.0" r="0.5" fill="none" stroke="#22c55e" stroke-width="0.5" />
  <line x1="26.5" y1="45.0" x2="29.5" y2="45.0" stroke="#22c55e" stroke-width="0.3" />
  <line x1="28.0" y1="43.5" x2="28.0" y2="46.5" stroke="#22c55e" stroke-width="0.3" />
  <circle cx="62.0" cy="45.0" r="0.5" fill="none" stroke="#22c55e" stroke-width="0.5" />
  <line x1="60.5" y1="45.0" x2="63.5" y2="45.0" stroke="#22c55e" stroke-width="0.3" />
  <line x1="62.0" y1="43.5" x2="62.0" y2="46.5" stroke="#22c55e" stroke-width="0.3" />
  <text x="62.0" y="49.0" class="laser-text">200</text>
  <text x="28.0" y="49.0" class="laser-text">FF</text>
</svg>