<svg xmlns="http://www.w3.org/2000/svg" viewBox="0 0 90 78" width="100%" height="100%">
  <!-- Design styles -->
  <style>
    .lens-border { fill: rgba(15, 23, 42, 0.6); stroke: #38bdf8; stroke-width: 0.8; }
    .safety-margin { fill: none; stroke: #f43f5e; stroke-width: 0.5; stroke-dasharray: 3, 3; }
    .grid-line { stroke: #334155; stroke-width: 0.15; }
    .grid-line-major { stroke: #475569; stroke-width: 0.3; }
    .alignment-axis { stroke: rgba(14, 165, 233, 0.4); stroke-width: 0.5; stroke-dasharray: 2, 2; }
    .laser-marking { fill: none; stroke: #22c55e; stroke-width: 0.6; }
    .laser-text { fill: #22c55e; font-family: "Courier New", monospace; font-weight: bold; font-size: 2.8px; text-anchor: middle; }
    .vector-arrow { stroke: #0ea5e9; stroke-width: 0.4; stroke-dasharray: 1, 1; }
    .fitting-cross { stroke: #eab308; stroke-width: 0.6; stroke-dasharray: 2, 1; }
    .fitting-cross-center { fill: none; stroke: #eab308; stroke-width: 0.4; }
    .crt-text { fill: #38bdf8; font-family: "Courier New", monospace; font-size: 2px; font-weight: bold; }
    .crt-title { fill: #eab308; font-family: "Courier New", monospace; font-size: 2.2px; font-weight: bold; }
  </style>
  <defs>
    <marker id="arrow" viewBox="0 0 10 10" refX="5" refY="5" markerWidth="4" markerHeight="4" orient="auto-start-reverse">
      <path d="M 0 0 L 10 5 L 0 10 z" fill="#0ea5e9" />
    </marker>
  </defs>
  <rect width="90" height="78" fill="#090d16" rx="8" stroke="#1e293b" stroke-width="1.5" />
  <line x1="0.0" y1="89.0" x2="90.0" y2="89.0" class="grid-line-major" />
  <line x1="-5.0" y1="78.0" x2="-5.0" y2="0.0" class="grid-line-major" />
  <line x1="0.0" y1="84.0" x2="90.0" y2="84.0" class="grid-line" />
  <line x1="0.0" y1="78.0" x2="0.0" y2="0.0" class="grid-line" />
  <line x1="0.0" y1="79.0" x2="90.0" y2="79.0" class="grid-line-major" />
  <line x1="5.0" y1="78.0" x2="5.0" y2="0.0" class="grid-line-major" />
  <line x1="0.0" y1="74.0" x2="90.0" y2="74.0" class="grid-line" />
  <line x1="10.0" y1="78.0" x2="10.0" y2="0.0" class="grid-line" />
  <line x1="0.0" y1="69.0" x2="90.0" y2="69.0" class="grid-line-major" />
  <line x1="15.0" y1="78.0" x2="15.0" y2="0.0" class="grid-line-major" />
  <line x1="0.0" y1="64.0" x2="90.0" y2="64.0" class="grid-line" />
  <line x1="20.0" y1="78.0" x2="20.0" y2="0.0" class="grid-line" />
  <line x1="0.0" y1="59.0" x2="90.0" y2="59.0" class="grid-line-major" />
  <line x1="25.0" y1="78.0" x2="25.0" y2="0.0" class="grid-line-major" />
  <line x1="0.0" y1="54.0" x2="90.0" y2="54.0" class="grid-line" />
  <line x1="30.0" y1="78.0" x2="30.0" y2="0.0" class="grid-line" />
  <line x1="0.0" y1="49.0" x2="90.0" y2="49.0" class="grid-line-major" />
  <line x1="35.0" y1="78.0" x2="35.0" y2="0.0" class="grid-line-major" />
  <line x1="0.0" y1="44.0" x2="90.0" y2="44.0" class="grid-line" />
  <line x1="40.0" y1="78.0" x2="40.0" y2="0.0" class="grid-line" />
  <line x1="0.0" y1="34.0" x2="90.0" y2="34.0" class="grid-line" />
  <line x1="50.0" y1="78.0" x2="50.0" y2="0.0" class="grid-line" />
  <line x1="0.0" y1="29.0" x2="90.0" y2="29.0" class="grid-line-major" />
  <line x1="55.0" y1="78.0" x2="55.0" y2="0.0" class="grid-line-major" />
  <line x1="0.0" y1="24.0" x2="90.0" y2="24.0" class="grid-line" />
  <line x1="60.0" y1="78.0" x2="60.0" y2="0.0" class="grid-line" />
  <line x1="0.0" y1="19.0" x2="90.0" y2="19.0" class="grid-line-major" />
  <line x1="65.0" y1="78.0" x2="65.0" y2="0.0" class="grid-line-major" />
  <line x1="0.0" y1="14.0" x2="90.0" y2="14.0" class="grid-line" />
  <line x1="70.0" y1="78.0" x2="70.0" y2="0.0" class="grid-line" />
  <line x1="0.0" y1="9.0" x2="90.0" y2="9.0" class="grid-line-major" />
  <line x1="75.0" y1="78.0" x2="75.0" y2="0.0" class="grid-line-major" />
  <line x1="0.0" y1="4.0" x2="90.0" y2="4.0" class="grid-line" />
  <line x1="80.0" y1="78.0" x2="80.0" y2="0.0" class="grid-line" />
  <line x1="0.0" y1="-1.0" x2="90.0" y2="-1.0" class="grid-line-major" />
  <line x1="85.0" y1="78.0" x2="85.0" y2="0.0" class="grid-line-major" />
  <line x1="0.0" y1="-6.0" x2="90.0" y2="-6.0" class="grid-line" />
  <line x1="90.0" y1="78.0" x2="90.0" y2="0.0" class="grid-line" />
  <line x1="0.0" y1="-11.0" x2="90.0" y2="-11.0" class="grid-line-major" />
  <line x1="95.0" y1="78.0" x2="95.0" y2="0.0" class="grid-line-major" />
  <line x1="0.0" y1="39.0" x2="90.0" y2="39.0" class="alignment-axis" />
  <line x1="45.0" y1="78.0" x2="45.0" y2="0.0" class="alignment-axis" />
  <polygon points="80.0,39.0 79.98467085352213,38.38934029875945 79.96868503739816,37.77886661037949 79.932061125715,37.169288250621825 79.88481483758605,36.56061611316794 79.8170046983065,35.95390679096935 79.73864980521378,35.34882077806086 79.64978615379854,34.7455412217263 79.54055023770599,34.14564223851292 79.42093866974055,33.548258893347956 79.28115788235496,32.95530693541416 79.14099344030976,32.36366314080377 78.9808476494924,31.77714786099104 78.80089754739981,31.196447924811324 78.61104395820053,30.61982553642751 78.41137433133888,30.047449229903805 78.20197897770953,29.47948573008085 77.97338798560546,28.919023621160036 77.73536529087919,28.36363505361431 77.48801825759253,27.813478212852097 77.2220599667488,27.272129285362823 76.94712219473425,26.736648766559824 76.66332863345579,26.207184834846608 76.37080540565917,25.683883141085552 76.06054555984844,25.170954135422793 75.74196013628317,24.664788561755472 75.41519052676381,24.16552039265762 75.0803802565993,23.673280728792903 74.72884545156008,23.192892480999056 74.36972976574091,22.720092952128002 74.0118510267787,22.250000000000004 73.62938784345056,21.79772829800419 73.24848208297055,21.348389308391944 72.86063626714699,20.9070912568008 72.45772440302298,20.479531037048865 72.04840050242251,20.060506071688458 71.63283945482327,19.650109494531783 71.21121743975215,19.248430940149774 70.78371185801194,18.85555652734446 70.3505012627264,18.471568843954305 69.91176529022917,18.096546932993743 69.46013749502004,17.73712687041766 69.0110093111746,17.38039010854529 68.54958919213729,17.039652805987547 68.0908075908707,16.701466308266188 67.62741699796952,16.372583002030478 67.15265543393743,16.060253767200415 66.68072786638683,15.750265825526572 66.19805760944863,15.45717192887615 65.71834413552023,15.16627145656486 65.2285260768354,14.892581375045761 64.7417806672334,14.620931189094822 64.25173433343333,14.358903734717803 63.75857427164935,14.10653115182588 63.26248778872714,13.863841984770382 62.76366223379189,13.630861188369924 62.26228493014196,13.407610135225863 61.75854310741238,13.194106624319303 61.257923026674725,12.981884409920848 60.75501471149856,12.779252271522385 60.25,12.586225184574623 59.743060551691116,12.402814705890975 59.23437778366821,12.229028984517338 58.7241328071265,12.064872773785641 58.216890075690685,11.901359504080116 57.70813113054283,11.747324843807935 57.198031925843246,11.6027717252984 56.68676805311418,11.467699833237507 56.178260747530814,11.332833779727064 55.66861385796359,11.207310703178305 55.157998256772366,11.091129162658525 54.64658441656555,10.984284604992247 54.13763252366719,10.87725881315231 53.627889006367965,10.779446651530822 53.117520128810625,10.690843054616508 52.60927992601411,10.601780707101394 52.100407635850246,10.521820433799501 51.59106589227524,10.450957101792607 51.08141695641947,10.389182678536187 50.57353075494888,10.326669971493736 50.06705382432103,10.26330976710377 49.558500311272326,10.218761755057685 49.05132896894751,10.173296518932887 48.54396050622169,10.136757910270358 48.037597142558006,10.099193720597981 47.53100276939199,10.07050596741571 47.024332868054515,10.050691261459903 46.5182660906078,10.029757196769811 46.012085404372534,10.017666016446224 45.506119786681225,10.004416840464653 45.0,10.0 44.49388021331878,10.004416840464653 43.98791459562747,10.017666016446224 43.4817339093922,10.029757196769811 42.975667131945485,10.050691261459903 42.468997230608004,10.07050596741571 41.96240285744199,10.099193720597981 41.45603949377831,10.136757910270354 40.9486710310525,10.173296518932887 40.441499688727674,10.218761755057685 39.93294617567897,10.26330976710377 39.42646924505112,10.326669971493736 38.91858304358054,10.389182678536184 38.408934107724754,10.450957101792607 37.899592364149754,10.521820433799501 37.39072007398589,10.601780707101394 36.882479871189375,10.690843054616508 36.37211099363204,10.779446651530819 35.86236747633281,10.877258813152306 35.35341558343445,10.984284604992244 34.84200174322764,11.091129162658522 34.33138614203641,11.207310703178305 33.821739252469186,11.332833779727064 33.31323194688582,11.46769983323751 32.80196807415675,11.6027717252984 32.29186886945717,11.747324843807935 31.783109924309315,11.90135950408012 31.275867192873502,12.064872773785638 30.765622216331785,12.229028984517338 30.25693944830889,12.402814705890972 29.750000000000007,12.58622518457462 29.24498528850144,12.779252271522385 28.742076973325275,12.981884409920848 28.241456892587617,13.194106624319303 27.737715069858048,13.407610135225863 27.236337766208102,13.630861188369927 26.73751221127286,13.863841984770382 26.241425728350652,14.106531151825884 25.748265666566667,14.358903734717803 25.258219332766604,14.620931189094819 24.771473923164606,14.892581375045761 24.281655864479784,15.166271456564857 23.80194239055137,15.45717192887615 23.31927213361318,15.750265825526569 22.847344566062574,16.060253767200418 22.37258300203048,16.372583002030478 21.909192409129293,16.70146630826619 21.45041080786271,17.039652805987547 20.988990688825393,17.380390108545285 20.53986250497996,17.73712687041766 20.088234709770838,18.096546932993736 19.64949873727361,18.471568843954305 19.21628814198806,18.855556527344458 18.788782560247846,19.24843094014978 18.36716054517673,19.65010949453178 17.951599497577483,20.06050607168846 17.542275596977024,20.479531037048865 17.139363732853017,20.907091256800793 16.75151791702945,21.348389308391944 16.370612156549452,21.797728298004184 15.988148973221303,22.250000000000004 15.630270234259093,22.720092952128 15.271154548439927,23.19289248099906 14.919619743400705,23.673280728792896 14.584809473236184,24.165520392657623 14.258039863716832,24.664788561755472 13.939454440151575,25.170954135422786 13.629194594340834,25.683883141085552 13.336671366544216,26.207184834846597 13.052877805265759,26.736648766559828 12.777940033251205,27.272129285362816 12.511981742407471,27.8134782128521 12.264634709120813,28.363635053614306 12.026612014394537,28.919023621160044 11.798021022290463,29.479485730080846 11.58862566866113,30.047449229903798 11.388956041799482,30.61982553642751 11.199102452600194,31.196447924811316 11.01915235050759,31.777147860991043 10.859006559690243,32.363663140803766 10.718842117645039,32.95530693541416 10.57906133025945,33.54825889334795 10.459449762294021,34.14564223851292 10.350213846201456,34.7455412217263 10.261350194786218,35.348820778060855 10.182995301693488,35.95390679096935 10.115185162413951,36.56061611316793 10.067938874285012,37.169288250621825 10.03131496260184,37.77886661037949 10.015329146477868,38.38934029875945 10.0,38.99999999999999 10.015329146477868,39.61065970124056 10.03131496260184,40.221133389620505 10.067938874285012,40.83071174937817 10.115185162413951,41.43938388683206 10.182995301693488,42.046093209030644 10.261350194786218,42.65117922193914 10.350213846201449,43.254458778273694 10.459449762294028,43.85435776148709 10.57906133025945,44.451741106652044 10.718842117645039,45.04469306458585 10.859006559690243,45.63633685919623 11.01915235050759,46.222852139008964 11.199102452600194,46.803552075188676 11.388956041799482,47.38017446357248 11.588625668661123,47.952550770096195 11.798021022290463,48.52051426991915 12.026612014394544,49.080976378839964 12.264634709120813,49.63636494638568 12.511981742407478,50.18652178714791 12.777940033251198,50.72787071463718 13.052877805265759,51.26335123344018 13.33667136654421,51.79281516515339 13.629194594340834,52.31611685891444 13.939454440151572,52.82904586457721 14.258039863716828,53.33521143824452 14.584809473236188,53.83447960734238 14.919619743400702,54.3267192712071 15.271154548439931,54.807107519000944 15.63027023425909,55.279907047871994 15.988148973221307,55.75 16.37061215654945,56.20227170199581 16.751517917029446,56.651610691608056 17.139363732853013,57.0929087431992 17.54227559697702,57.52046896295113 17.951599497577487,57.93949392831155 18.367160545176727,58.34989050546821 18.78878256024785,58.751569059850226 19.216288141988056,59.14444347265554 19.649498737273614,59.5284311560457 20.088234709770834,59.903453067006254 20.539862504979958,60.26287312958233 20.98899068882539,60.619609891454715 21.450410807862706,60.96034719401245 21.9091924091293,61.29853369173381 22.372583002030474,61.62741699796952 22.847344566062578,61.939746232799585 23.319272133613172,62.24973417447343 23.801942390551375,62.54282807112385 24.28165586447978,62.83372854343514 24.771473923164603,63.107418624954235 25.258219332766586,63.37906881090517 25.748265666566674,63.6410962652822 26.241425728350656,63.89346884817412 26.737512211272858,64.13615801522961 27.236337766208095,64.36913881163007 27.73771506985805,64.59238986477413 28.24145689258762,64.8058933756807 28.742076973325272,65.01811559007915 29.244985288501436,65.2207477284776 29.749999999999986,65.41377481542537 30.2569394483089,65.59718529410902 30.765622216331792,65.77097101548267 31.2758671928735,65.93512722621436 31.783109924309308,66.09864049591988 32.291868869457176,66.25267515619207 32.801968074156754,66.3972282747016 33.31323194688582,66.5323001667625 33.82173925246918,66.66716622027293 34.3313861420364,66.79268929682169 34.84200174322764,66.90887083734148 35.35341558343445,67.01571539500776 35.8623674763328,67.12274118684769 36.37211099363203,67.22055334846917 36.88247987118938,67.30915694538349 37.3907200739859,67.3982192928986 37.899592364149754,67.4781795662005 38.40893410772475,67.54904289820739 38.918583043580526,67.61081732146381 39.42646924505113,67.67333002850626 39.93294617567897,67.73669023289622 40.44149968872767,67.78123824494232 40.948671031052484,67.82670348106711 41.45603949377832,67.86324208972965 41.962402857441994,67.90080627940202 42.468997230608004,67.92949403258429 42.97566713194548,67.9493087385401 43.48173390939218,67.97024280323019 43.98791459562748,67.98233398355377 44.493880213318775,67.99558315953534 44.99999999999999,68.0 45.50611978668121,67.99558315953534 46.012085404372534,67.98233398355377 46.5182660906078,67.97024280323019 47.024332868054515,67.9493087385401 47.53100276939198,67.92949403258429 48.037597142558,67.90080627940202 48.543960506221694,67.86324208972964 49.05132896894751,67.82670348106711 49.558500311272326,67.78123824494232 50.067053824321015,67.73669023289624 50.573530754948884,67.67333002850626 51.08141695641946,67.61081732146381 51.59106589227524,67.54904289820739 52.10040763585024,67.47817956620051 52.609279926014096,67.3982192928986 53.11752012881063,67.30915694538349 53.62788900636796,67.22055334846918 54.13763252366719,67.12274118684769 54.646584416565545,67.01571539500776 55.157998256772366,66.90887083734148 55.66861385796359,66.79268929682169 56.178260747530814,66.66716622027293 56.68676805311417,66.5323001667625 57.19803192584323,66.3972282747016 57.70813113054284,66.25267515619205 58.216890075690685,66.09864049591988 58.724132807126495,65.93512722621436 59.234377783668194,65.77097101548267 59.743060551691116,65.59718529410902 60.25,65.41377481542537 60.75501471149856,65.22074772847762 61.25792302667472,65.01811559007915 61.758543107412365,64.80589337568071 62.26228493014196,64.59238986477413 62.76366223379189,64.36913881163008 63.262487788727135,64.13615801522963 63.75857427164934,63.89346884817412 64.25173433343335,63.64109626528219 64.7417806672334,63.379068810905174 65.2285260768354,63.10741862495424 65.71834413552021,62.83372854343514 66.19805760944861,62.542828071123864 66.68072786638683,62.249734174473424 67.15265543393743,61.93974623279958 67.62741699796952,61.627416997969526 68.0908075908707,61.29853369173382 68.54958919213729,60.96034719401244 69.0110093111746,60.61960989145471 69.46013749502004,60.262873129582346 69.91176529022916,59.90345306700627 70.35050126272638,59.52843115604571 70.78371185801194,59.14444347265554 71.21121743975215,58.751569059850226 71.63283945482327,58.349890505468224 72.04840050242251,57.939493928311556 72.45772440302298,57.52046896295113 72.86063626714699,57.092908743199196 73.24848208297055,56.651610691608056 73.62938784345054,56.20227170199582 74.01185102677869,55.750000000000014 74.36972976574091,55.27990704787199 74.72884545156008,54.807107519000944 75.0803802565993,54.326719271207104 75.41519052676381,53.834479607342395 75.74196013628317,53.33521143824452 76.06054555984844,52.8290458645772 76.37080540565915,52.316116858914455 76.66332863345579,51.79281516515341 76.94712219473423,51.26335123344019 77.2220599667488,50.72787071463718 77.48801825759253,50.1865217871479 77.73536529087919,49.6363649463857 77.97338798560546,49.08097637883998 78.20197897770953,48.52051426991915 78.41137433133888,47.952550770096195 78.61104395820053,47.380174463572494 78.80089754739981,46.80355207518869 78.9808476494924,46.22285213900898 79.14099344030976,45.63633685919622 79.28115788235496,45.04469306458585 79.42093866974055,44.45174110665205 79.54055023770597,43.8543577614871 79.64978615379854,43.25445877827369 79.73864980521378,42.65117922193913 79.8170046983065,42.04609320903066 79.88481483758605,41.439383886832076 79.932061125715,40.830711749378196 79.96868503739816,40.221133389620505 79.98467085352213,39.61065970124055 80.0,39.0" class="lens-border" />
  <polygon points="76.99905493803463,39.0 76.98565636948835,39.533752213623465 76.97104148556765,40.09187211335967 76.93903159146394,40.62465350800031 76.89774042311662,41.15660606324332 76.83847992464577,41.68682023537741 76.76685656454418,42.239922813715275 76.68921624759145,42.76700914450382 76.59378355804144,43.29110392462954 76.48930806766245,43.812892234840355 76.36157631245118,44.35473203814547 76.23352893056601,44.89522888458554 76.10020643342034,45.38350697993626 75.94313415802786,45.8903800477219 75.76976688352732,46.416930282098306 75.5874611773164,46.93953088199581 75.4048527888496,47.43483747601998 75.20553661860399,47.92352322907456 74.98834331564257,48.4303096829923 74.77283756269986,48.90964417360508 74.54116103719505,49.3812137502052 74.29046287896614,49.86948416444376 74.03174158493003,50.3521716255024 73.7772557010915,50.8074274185349 73.50740025428266,51.25355890436302 73.21720563558114,51.714617429911456 72.9196260747136,52.16928640213873 72.62885812022573,52.59677484241094 72.3236445741384,53.01386298988889 71.981728683173,53.46401785236229 71.67144963106729,53.87158605831615 71.33981738138593,54.263748986770885 70.97739703459324,54.69128148782189 70.64160964325106,55.073346513413355 70.29288171753421,55.44340806242557 69.92121300449315,55.82388540415694 69.54399988220152,56.19641063273987 69.16140655265706,56.56090662686317 68.77359821357174,56.917299572375015 68.38074099299688,57.26551897345455 68.00248959984458,57.58883998922643 67.59313475384512,57.91461786633167 67.18644131385594,58.23764925486374 66.76849855941785,58.54628054529793 66.33246803295673,58.86769630442251 65.93432396053845,59.15027204268958 65.50474139338661,59.432879575943474 65.07815674791732,59.71308379644499 64.64172941688594,59.978097406084316 64.20842395088275,60.24085584745802 63.76585390349925,60.488145693552156 63.30337043235603,60.746255412631 62.860994245682605,60.98279367049774 62.41596525690563,61.21053537965631 61.968455487660705,61.429460460032416 61.51863684593609,61.639552153106116 61.06668106258823,61.840797011763314 60.58765137254113,62.043826659395556 60.11179774024758,62.24554991313735 59.65879471189936,62.4280741816077 59.20404561977361,62.601888707296865 58.747716177505005,62.766988507131195 58.28997173546216,62.92337172485719 57.803702751664595,63.079814894261446 57.321940880541845,63.235114229046886 56.86443166913445,63.37363223766893 56.4058569347453,63.50358422997731 55.917698623301945,63.632553244679755 55.43494608035549,63.76058863291205 54.977045329364316,63.87336693529157 54.518398297836626,63.977723947794516 54.03307073160724,64.07911856221493 54.029226718941885,64.07992427962083 53.54623675967822,64.18149062324234 53.08860346809135,64.26930361146283 52.60437474180563,64.35336909579152 52.59970042382756,64.35418439844989 52.11749043074451,64.43868529732195 51.66083201667591,64.51044108418702 51.203842237059,64.57402082978072 50.72042979539589,64.63261513397282 50.714930353556504,64.63328687326988 50.20704415208592,64.69579958031233 50.20113379805634,64.6965330071262 49.74985133510627,64.75298839010817 49.29671031657315,64.79268240663589 49.290640264345,64.79322034083597 48.80963556266939,64.8363398756239 48.328470807900324,64.87099140004514 48.322017608286195,64.871463128968 47.84180363983224,64.90708744519779 47.38756793883549,64.9328101976937 46.90709931529266,64.95160023134551 46.90034027790448,64.95187219415956 46.42044193288502,64.97172376997332 45.94044458979082,64.98318950659271 45.933554559448915,64.9833620086271 45.45376057369092,64.99592585630754 44.99999999999999,64.99988576484279 44.54623942630908,64.99592585630754 44.06644544055111,64.9833620086271 44.05955541020919,64.98318950659271 43.57955806711483,64.97172376997332 43.09965972209553,64.95187219415956 43.09290068470731,64.95160023134551 42.612432061164526,64.9328101976937 42.15819636016771,64.90708744519779 41.67798239171381,64.871463128968 41.671529192099726,64.87099140004514 41.190364437330686,64.8363398756239 40.70935973565499,64.79322034083597 40.70328968342684,64.79268240663589 40.25014866489363,64.75298839010816 39.79886620194367,64.6965330071262 39.79295584791407,64.69579958031233 39.28506964644347,64.63328687326988 39.27957020460413,64.63261513397282 38.79615776294087,64.5740208297807 38.3391679833239,64.51044108418698 37.882509569255504,64.43868529732195 37.40029957617243,64.35418439844989 37.39562525819442,64.35336909579154 36.911396531908764,64.26930361146285 36.45376324032177,64.18149062324234 35.97077328105811,64.07992427962083 35.96692926839273,64.07911856221492 35.4816017021635,63.977723947794544 35.02295467063566,63.87336693529157 34.565053919644456,63.76058863291203 34.07951698693263,63.631816200697436 33.59414306525459,63.50358422997728 33.13556833086555,63.37363223766893 32.67805911945816,63.235114229046886 32.194650039437214,63.07928442926978 31.710028264537794,62.923371724857176 31.252283822494828,62.76698850713114 30.79595438022636,62.60188870729685 30.34120528810073,62.42807418160773 29.888202259752262,62.24554991313729 29.41215309155601,62.04374377623447 28.933318937411805,61.84079701176333 28.48136315406383,61.63955215310608 28.031544512339227,61.42946046003239 27.58403474309448,61.210535379656356 27.13900575431744,60.98279367049777 26.696629567644045,60.746255412631044 26.234146096497135,60.48814569355013 25.791576049117232,60.240855847458 25.358270583117402,59.97809740608634 24.92184325208263,59.71308379644496 24.49525860660979,59.43287957594111 24.06567603946159,59.15027204268962 23.66753196704339,58.86769630442259 23.231501440582694,58.54628054529833 22.81355868614411,58.237649254863776 22.406865246156368,57.91461786633285 21.99751040015543,57.58883998922643 21.619259007003077,57.265518973454505 21.22640178642826,56.917299572375015 20.83859344734299,56.560906626863215 20.45600011779843,56.19641063273981 20.078786995506817,55.82388540415691 19.707118282465764,55.44340806242555 19.35839035674891,55.07334651341333 19.022602965406783,54.69128148782191 18.66018261861424,54.263748986771084 18.328550368932724,53.871586058316154 18.018271316825317,53.46401785236009 17.67635542586163,53.01386298988894 17.371141879774264,52.59677484241092 17.080373925286406,52.16928640213875 16.782794364418915,51.71461742991153 16.492599745717396,51.25355890436309 16.22274429890847,50.80742741853486 15.968258415069997,50.35217162550245 15.709537121033854,49.86948416444373 15.458838962804865,49.38121375020502 15.227162437300176,48.90964417360513 15.011656684357437,48.43030968299229 14.794463381395992,47.92352322907451 14.595147211150415,47.434837476020014 14.412538822683555,46.939530881995694 14.2302331164727,46.416930282098384 14.05686584197214,45.89038004772189 13.899793566579632,45.38350697993618 13.766471069434001,44.895228884585606 13.63842368754873,44.354732038145116 13.51069193233755,43.81289223484036 13.406216441958556,43.291103924629454 13.310783752408561,42.76700914450385 13.233143435455801,42.239922813715204 13.161520075354236,41.68682023537748 13.10225957688338,41.1566060632433 13.060968408536056,40.624653508000335 13.028958514432343,40.091872113359656 13.014343630511647,39.533752213623444 13.000945061965371,39.0 13.01434363051165,38.46624778637647 13.028958514432343,37.90812788664034 13.060968408536056,37.37534649199966 13.10225957688338,36.84339393675669 13.161520075354236,36.31317976462251 13.233143435455816,35.76007718628469 13.310783752408557,35.23299085549621 13.406216441958556,34.70889607537051 13.510691932337544,34.18710776515966 13.638423687548993,33.64526796185379 13.76647106943398,33.104771115414465 13.899793566579646,32.616493020063785 14.056865841972101,32.10961995227824 14.230233116472728,31.58306971790153 14.412538822683594,31.060469118004207 14.595147211150405,30.565162523980007 14.794463381395971,30.076476770925538 15.011656684357515,29.569690317007517 15.227162437300127,29.090355826394962 15.458838962804975,28.61878624979476 15.709537121033822,28.13051583555633 15.96825841507001,27.64782837449753 16.222744298908513,27.192572581465065 16.492599745717317,26.74644109563703 16.782794364418947,26.285382570088416 17.08037392528634,25.830713597861344 17.37114187977427,25.403225157589063 17.676355425861694,24.986137010110973 18.018271316825032,24.53598214764028 18.32855036893269,24.12841394168389 18.660182618614975,23.736251013228046 19.02260296540682,23.30871851217805 19.358390356748927,22.926653486586652 19.707118282465675,22.556591937574538 20.078786995506814,22.176114595843092 20.45600011779848,21.80358936726013 20.838593447342898,21.439093373136874 21.22640178642832,21.082700427624925 21.619259007003052,20.734481026545524 21.997510400155445,20.41116001077355 22.406865246156773,20.08538213366683 22.813558686144095,19.762350745136235 23.23150144058071,19.45371945470313 23.667531967043278,19.132303695577495 24.065676039461632,18.849727957310357 24.495258606609788,18.567120424058896 24.92184325208268,18.28691620355501 25.35827058311558,18.021902593914767 25.79157604911723,17.759144152542 26.234146096498886,17.51185430644889 26.69662956764404,17.253744587368956 27.139005754317246,17.017206329502336 27.58403474309449,16.78946462034364 28.03154451233929,16.570539539967584 28.481363154063807,16.36044784689393 28.933318937411897,16.159202988236633 29.41234862745887,15.956173340604447 29.888202259752465,15.754450086862622 30.341205288100625,15.571925818392309 30.795954380226423,15.398111292703124 31.25228382249496,15.233011492868812 31.710028264537705,15.076628275142848 32.196297248335405,14.920185105738554 32.67805911945801,14.76488577095316 33.135568330865766,14.626367762331007 33.594143065254606,14.496415770022711 34.08230137669807,14.367446755320241 34.56505391964468,14.23941136708791 35.02295467063538,14.1266330647085 35.48160170216342,14.022276052205473 35.966929268392725,13.92088143778508 35.97077328105812,13.920075720379167 36.45376324032176,13.81850937675766 36.91139653190854,13.73069638853719 37.39562525819437,13.646630904208475 37.40029957617244,13.645815601550108 37.882509569255554,13.561314702678036 38.33916798332393,13.48955891581301 38.79615776294121,13.425979170219257 39.279570204604134,13.367384866027173 39.285069646443475,13.366713126730119 39.79295584791406,13.304200419687671 39.79886620194366,13.303466992873794 40.250148664893665,13.247011609891839 40.70328968342687,13.207317593364106 40.70935973565499,13.206779659164035 41.19036443733093,13.163660124376069 41.671529192099705,13.129008599954851 41.67798239171378,13.128536871031997 42.15819636016775,13.092912554802222 42.612432061164405,13.067189802306313 43.09290068470732,13.048399768654498 43.09965972209553,13.04812780584043 43.57955806711484,13.028276230026684 44.059555410209185,13.016810493407291 44.0664454405511,13.016637991372896 44.54623942630908,13.00407414369247 45.0,13.00011423515721 45.45376057369093,13.00407414369247 45.93355455944891,13.016637991372896 45.940444589790815,13.016810493407291 46.42044193288516,13.028276230026684 46.90034027790446,13.04812780584043 46.90709931529268,13.048399768654498 47.387567938835595,13.067189802306313 47.841803639832364,13.092912554802226 48.3220176082862,13.128536871031997 48.32847080790032,13.129008599954858 48.8096355626692,13.16366012437608 49.29064026434501,13.206779659164035 49.29671031657314,13.207317593364106 49.749851335106335,13.247011609891839 50.20113379805635,13.303466992873794 50.20704415208592,13.304200419687671 50.71493035355651,13.366713126730122 50.72042979539589,13.36738486602718 51.20384223705888,13.425979170219271 51.66083201667606,13.48955891581301 52.11749043074451,13.561314702678047 52.59970042382757,13.645815601550108 52.604374741805614,13.646630904208472 53.08860346809132,13.730696388537165 53.5462367596782,13.818509376757657 54.029226718941885,13.92007572037917 54.033070731607275,13.920881437785084 54.51839829783665,14.022276052205491 54.977045329364444,14.126633064708457 55.434946080355544,14.239411367087971 55.920483013067354,14.368183799302557 56.405856934745316,14.496415770022693 56.86443166913438,14.626367762331054 57.32194088054198,14.764885770953157 57.80534996056278,14.920715570730223 58.2899717354623,15.076628275142848 58.74771617750489,15.233011492868762 59.20404561977372,15.398111292703181 59.65879471189933,15.571925818392291 60.111797740247574,15.75445008686264 60.587846908444,15.956256223765536 61.06668106258821,16.159202988236675 61.518636845936044,16.360447846893862 61.96845548766077,16.570539539967612 62.415965256905665,16.789464620343715 62.8609942456826,17.01720632950225 63.30337043235596,17.25374458736896 63.76585390350048,17.511854306448537 64.20842395088275,17.759144152541992 64.64172941688518,18.021902593915232 65.07815674791733,18.286916203555023 65.50474139338911,18.567120424058174 65.93432396053842,18.849727957310385 66.33246803295671,19.132303695577484 66.76849855941929,19.453719454703126 67.18644131385588,19.76235074513622 67.59313475384509,20.08538213366832 68.00248959984465,20.41116001077363 68.38074099299692,20.734481026545495 68.7735982135717,21.08270042762495 69.16140655265707,21.439093373136835 69.5439998822015,21.803589367260116 69.9212130044932,22.176114595843103 70.2928817175342,22.556591937574403 70.64160964325106,22.92665348658663 70.97739703459314,23.308718512177993 71.33981738138593,23.736251013229115 71.6714496310673,24.128413941683867 71.98172868317447,24.53598214763963 72.32364457413833,24.98613701011101 72.62885812022576,25.403225157589098 72.91962607471362,25.830713597861294 73.217205635581,26.28538257008833 73.50740025428269,26.746441095637046 73.77725570109149,27.19257258146506 74.03174158493002,27.64782837449757 74.29046287896615,28.130515835556274 74.54116103719508,28.61878624979485 74.77283756269985,29.090355826394912 74.98834331564254,29.569690317007627 75.20553661860403,30.076476770925545 75.40485278884958,30.565162523979993 75.5874611773164,31.060469118004175 75.76976688352728,31.58306971790156 75.9431341580279,32.10961995227823 76.10020643342038,32.61649302006387 76.23352893056601,33.10477111541444 76.36157631245109,33.64526796185416 76.48930806766244,34.18710776515958 76.59378355804142,34.70889607537044 76.68921624759145,35.2329908554962 76.7668565645442,35.760077186284825 76.83847992464577,36.313179764622575 76.89774042311662,36.84339393675668 76.93903159146394,37.37534649199968 76.97104148556765,37.90812788664034 76.98565636948835,38.46624778637651 76.99905493803463,39.0" class="safety-margin" />
  <circle cx="45.0" cy="39.0" r="1.0" fill="#f8fafc" />
  <circle cx="45.0" cy="39.0" r="2.5" fill="none" stroke="rgba(255,255,255,0.15)" stroke-width="0.3" />
  <!-- Reference Point (PRP) -->
  <circle cx="45.0" cy="39.0" r="0.6" fill="#0ea5e9" />
  <text x="47.0" y="39.7" fill="#0ea5e9" font-family="Courier New" font-size="2px" font-weight="bold">PRP</text>
  <!-- Fitting Cross -->
  <line x1="37.67157287525381" y1="36.17157287525381" x2="46.67157287525381" y2="36.17157287525381" class="fitting-cross" />
  <line x1="42.17157287525381" y1="31.67157287525381" x2="42.17157287525381" y2="40.67157287525381" class="fitting-cross" />
  <circle cx="42.17157287525381" cy="36.17157287525381" r="0.75" class="fitting-cross-center" />
  <text x="44.17157287525381" y="34.971572875253806" fill="#eab308" font-family="Courier New" font-size="2px" font-weight="bold">FC</text>
  <!-- Nasal Mark -->
  <circle cx="57.020815280171306" cy="26.97918471982869" r="0.5" fill="none" stroke="#22c55e" stroke-width="0.4" />
  <line x1="55.8208152801713" y1="26.97918471982869" x2="58.22081528017131" y2="26.97918471982869" stroke="#22c55e" stroke-width="0.3" />
  <line x1="57.020815280171306" y1="25.77918471982869" x2="57.020815280171306" y2="28.17918471982869" stroke="#22c55e" stroke-width="0.3" />
  <!-- Temporal Mark -->
  <circle cx="32.979184719828694" cy="51.020815280171306" r="0.5" fill="none" stroke="#22c55e" stroke-width="0.4" />
  <line x1="31.779184719828695" y1="51.020815280171306" x2="34.1791847198287" y2="51.020815280171306" stroke="#22c55e" stroke-width="0.3" />
  <line x1="32.979184719828694" y1="49.8208152801713" x2="32.979184719828694" y2="52.22081528017131" stroke="#22c55e" stroke-width="0.3" />
  <!-- Translation Vectors -->
  <line x1="45.0" y1="39.0" x2="57.020815280171306" y2="26.97918471982869" class="vector-arrow" marker-end="url(#arrow)" />
  <line x1="45.0" y1="39.0" x2="32.979184719828694" y2="51.020815280171306" class="vector-arrow" marker-end="url(#arrow)" />
  <text x="35.10050506338833" y="53.94213562373095" class="laser-text">200</text>
  <text x="59.14213562373095" y="29.900505063388334" class="laser-text">FF</text>
  <!-- CNC Terminal readout overlay -->
  <rect x="4.0" y="4.0" width="28" height="20" fill="rgba(9, 13, 22, 0.85)" stroke="#38bdf8" stroke-width="0.4" rx="1.5" />
  <line x1="4.0" y1="7.2" x2="32.0" y2="7.2" stroke="#38bdf8" stroke-width="0.25" />
  <text x="18.0" y="6.3" class="crt-title" text-anchor="middle">LASERLAB SYSTEM v1.0</text>
  <text x="6.0" y="10.0" class="crt-text">TEMPLATE: 15127</text>
  <text x="6.0" y="12.5" class="crt-text">REF PT:   PRP (0.0, 0.0)</text>
  <text x="6.0" y="15.0" class="crt-text">FC DIST:  +4.0 mm</text>
  <text x="6.0" y="17.5" class="crt-text">OFFSET X: +0.00 mm</text>
  <text x="6.0" y="20.0" class="crt-text">OFFSET Y: +0.00 mm</text>
  <text x="6.0" y="22.5" class="crt-text">ROTATION: +0.00°</text>
</svg>